<?xml version="1.0" encoding="UTF-8" standalone="no"?>
<!-- Created with Inkscape (http://www.inkscape.org/) -->

<svg
   width="12.774131mm"
   height="16.804167mm"
   viewBox="0 0 12.774131 16.804167"
   version="1.1"
   id="svg5622"
   inkscape:version="1.1 (c4e8f9e, 2021-05-24)"
   sodipodi:docname="black_pawn_1.svg"
   inkscape:export-filename="/Users/krihl4n/repos/ChessUi/src/assets/black_pawn_1.png"
   inkscape:export-xdpi="96"
   inkscape:export-ydpi="96"
   xmlns:inkscape="http://www.inkscape.org/namespaces/inkscape"
   xmlns:sodipodi="http://sodipodi.sourceforge.net/DTD/sodipodi-0.dtd"
   xmlns="http://www.w3.org/2000/svg"
   xmlns:svg="http://www.w3.org/2000/svg">
  <sodipodi:namedview
     id="namedview5624"
     pagecolor="#ffffff"
     bordercolor="#666666"
     borderopacity="1.0"
     inkscape:pageshadow="2"
     inkscape:pageopacity="0.0"
     inkscape:pagecheckerboard="0"
     inkscape:document-units="mm"
     showgrid="true"
     width="32mm"
     inkscape:zoom="4.2676082"
     inkscape:cx="52.488417"
     inkscape:cy="57.760691"
     inkscape:window-width="1440"
     inkscape:window-height="847"
     inkscape:window-x="0"
     inkscape:window-y="149"
     inkscape:window-maximized="0"
     inkscape:current-layer="layer2"
     showguides="true"
     inkscape:snap-global="false"
     fit-margin-top="0.2"
     fit-margin-left="0.2"
     fit-margin-right="0.2"
     fit-margin-bottom="0.2"
     lock-margins="true">
    <inkscape:grid
       type="xygrid"
       id="grid15"
       originx="-0.51407739"
       originy="-0.46123992" />
  </sodipodi:namedview>
  <defs
     id="defs5619">
    <inkscape:path-effect
       center_point="15.875,15.875"
       end_point="15.875,17.594791"
       start_point="15.875,14.155209"
       effect="mirror_symmetry"
       id="path-effect2286"
       is_visible="true"
       lpeversion="1.1"
       mode="free"
       discard_orig_path="false"
       fuse_paths="false"
       oposite_fuse="false"
       split_items="false"
       split_open="false" />
    <inkscape:path-effect
       effect="mirror_symmetry"
       start_point="15.875,17.330209"
       end_point="15.875,40.878125"
       center_point="15.875,29.104167"
       id="path-effect530"
       is_visible="true"
       lpeversion="1.1"
       mode="free"
       discard_orig_path="false"
       fuse_paths="false"
       oposite_fuse="false"
       split_items="false"
       split_open="false" />
  </defs>
  <g
     inkscape:groupmode="layer"
     id="layer2"
     inkscape:label="Layer 2"
     style="display:inline"
     transform="translate(-0.51407741,-0.46123992)">
    <path
       style="display:inline;fill:#343535;fill-opacity:1;stroke:none;stroke-width:0.107611px;stroke-linecap:butt;stroke-linejoin:miter;stroke-opacity:1"
       d="m 1.1034816,16.696933 11.7302964,0.03156 C 13.002447,15.121421 12.084874,13.347736 10.611196,11.488755 9.9484876,10.384005 9.0472729,9.6522489 9.0368666,7.5273829 l 0.8643372,0.015781 c 0.2652082,-0.4916477 0.084653,-0.8820046 0,-1.2941531 L 8.9442585,6.170099 C 9.4464877,5.564104 9.8267991,4.842198 9.8394656,3.8185278 9.5485737,2.6591838 9.4401067,1.4389307 7.2001488,0.9303561 6.6753678,0.95631124 4.552251,0.97072493 4.0823594,3.5817924 3.977206,4.8753704 4.5155634,5.409706 4.9158276,6.1069702 L 4.0823594,6.233229 C 3.8172976,6.6909173 3.7418863,7.1486057 4.0514899,7.606294 L 4.8540898,7.5589467 C 4.9039957,9.2062542 4.1609254,10.090416 3.5421481,11.094195 2.0213122,13.136223 0.74297452,14.78039 1.1034816,16.696933 Z"
       id="path4566"
       sodipodi:nodetypes="cccccccccccccccc"
       inkscape:export-filename="/Users/krihl4n/repos/ChessUi/src/assets/white_pawn_1.png.png"
       inkscape:export-xdpi="96"
       inkscape:export-ydpi="96" />
  </g>
  <g
     inkscape:label="Layer 1"
     inkscape:groupmode="layer"
     id="layer1"
     style="display:inline"
     transform="translate(-0.51407741,-0.46123992)">
    <path
       style="fill:none;fill-opacity:1;stroke:#000000;stroke-width:1.59266;stroke-linecap:round;stroke-linejoin:round;stroke-miterlimit:4;stroke-dasharray:none;stroke-opacity:1"
       d="M 31.485416,40.745833 H 0.26458333 V 38.89375 C 0.14468208,30.552842 10.826393,25.80755 10.397548,17.197917 v 0 l -1.9650127,0.05864 c -1.0255424,0.03061 -0.9476256,-3.517175 0.078212,-3.535766 l 2.1602177,-0.03914 V 13.407293 C 9.1586851,12.014109 8.211973,10.021532 8.211973,7.8088907 c 10e-8,-4.2122521 3.43103,-7.62695727 7.663421,-7.62695733 4.232392,2.1e-7 7.663422,3.41470523 7.663422,7.62695733 0,2.2146943 -0.948469,4.2089153 -2.463201,5.6022753 M 0.264584,40.745833 H 31.485417 V 38.89375 C 31.605318,30.552842 20.923607,25.80755 21.352452,17.197917 v 0 l 1.965013,0.05864 c 1.025542,0.03061 0.947625,-3.517175 -0.07821,-3.535766 l -2.160218,-0.03914 v -0.274358 c 1.51228,-1.393184 2.458992,-3.385761 2.458992,-5.5984023 0,-4.2122521 -3.43103,-7.62695727 -7.663421,-7.62695733 -4.232392,2.1e-7 -7.663422,3.41470523 -7.663422,7.62695733 0,2.2146943 0.948469,4.2089153 2.463201,5.6022753"
       id="path173"
       sodipodi:nodetypes="cccccssccsssc"
       transform="matrix(0.37708158,0,0,0.3891249,0.91497244,0.90031694)"
       inkscape:original-d="M 31.485416,40.745833 H 0.26458333 V 38.89375 C 0.14468208,30.552842 10.826393,25.80755 10.397548,17.197917 v 0 l -1.9650127,0.05864 c -1.0255424,0.03061 -0.9476256,-3.517175 0.078212,-3.535766 l 2.1602177,-0.03914 V 13.407293 C 9.1586851,12.014109 8.211973,10.021532 8.211973,7.8088907 c 10e-8,-4.2122521 3.43103,-7.62695727 7.663421,-7.62695733 4.232392,2.1e-7 7.663422,3.41470523 7.663422,7.62695733 0,2.2146943 -0.948469,4.2089153 -2.463201,5.6022753"
       inkscape:path-effect="#path-effect530" />
  </g>
</svg>
